<svg width="1200" height="630" viewBox="0 0 1200 630" fill="none" xmlns="http://www.w3.org/2000/svg">
  <rect width="1200" height="630" fill="#0F172A"/>
  <circle cx="1030" cy="90" r="240" fill="#1D4ED8" fill-opacity="0.35"/>
  <circle cx="180" cy="540" r="250" fill="#2563EB" fill-opacity="0.25"/>
  <g transform="translate(72 86)">
    <rect width="88" height="88" rx="22" fill="#111827"/>
    <path d="M19 25C26 19 35 16 45 16H75V31H46C39 31 33 33 29 38C22 44 21 55 26 63C31 70 38 74 47 74H55V89H47C31 89 17 81 9 68C-2 50 1 31 19 25Z" fill="#93C5FD"/>
    <path d="M76 69C70 75 61 78 51 78H21V63H50C57 63 63 61 67 56C74 50 75 39 70 31C66 24 58 20 49 20H42V5H49C65 5 79 13 87 26C97 44 94 62 76 69Z" fill="#60A5FA"/>
  </g>
  <text x="72" y="250" fill="white" font-size="72" font-weight="700" font-family="Inter, Arial, sans-serif">SETU Groups</text>
  <text x="72" y="340" fill="#DBEAFE" font-size="52" font-weight="600" font-family="Inter, Arial, sans-serif">The Operating System for Global Work and Trade</text>
  <text x="72" y="430" fill="#CBD5E1" font-size="28" font-weight="500" font-family="Inter, Arial, sans-serif">Workforce operations. Payroll workflows. Buyer and supplier coordination.</text>
</svg>
