<svg width="700" height="120" viewBox="0 0 700 120" fill="none" xmlns="http://www.w3.org/2000/svg">
  <rect width="700" height="120" fill="transparent"/>
  <g transform="translate(4,4)">
    <rect width="112" height="112" rx="28" fill="#0F172A"/>
    <path d="M24 31C33 22 45 17 58 17H96V37H59C51 37 43 40 37 45C28 53 26 67 33 77C39 86 49 91 61 91H70V111H61C40 111 21 101 10 85C-5 63 0 41 24 31Z" fill="url(#g1)"/>
    <path d="M98 89C89 98 77 103 64 103H26V83H65C73 83 81 80 87 75C96 67 98 53 91 43C85 34 75 29 63 29H54V9H63C84 9 103 19 114 35C129 57 124 79 98 89Z" fill="url(#g2)"/>
  </g>
  <text x="138" y="53" fill="#0F172A" font-size="34" font-weight="700" font-family="Inter, Arial, sans-serif">SETU</text>
  <text x="138" y="88" fill="#475569" font-size="28" font-weight="600" font-family="Inter, Arial, sans-serif">Groups</text>
  <defs>
    <linearGradient id="g1" x1="10" y1="17" x2="96" y2="111" gradientUnits="userSpaceOnUse">
      <stop stop-color="#93C5FD"/>
      <stop offset="1" stop-color="#2563EB"/>
    </linearGradient>
    <linearGradient id="g2" x1="26" y1="9" x2="114" y2="103" gradientUnits="userSpaceOnUse">
      <stop stop-color="#BFDBFE"/>
      <stop offset="1" stop-color="#60A5FA"/>
    </linearGradient>
  </defs>
</svg>
